<?xml version="1.0" standalone="no"?>
<!DOCTYPE svg PUBLIC "-//W3C//DTD SVG 20010904//EN"
 "http://www.w3.org/TR/2001/REC-SVG-20010904/DTD/svg10.dtd">
<svg version="1.0" xmlns="http://www.w3.org/2000/svg"
 width="855.000000pt" height="855.000000pt" viewBox="0 0 855.000000 855.000000"
 preserveAspectRatio="xMidYMid meet">
<metadata>
Created by potrace 1.11, written by Peter Selinger 2001-2013
</metadata>
<g transform="translate(0.000000,855.000000) scale(0.100000,-0.100000)"
fill="#000000" stroke="none">
<path d="M3212 5483 l3 -98 398 -3 398 -2 -4 -623 c-4 -693 -3 -681 -74 -826
-101 -204 -330 -323 -598 -308 -337 18 -578 246 -603 573 l-7 86 -98 1 -97 2
0 -67 c0 -299 175 -580 445 -712 239 -117 572 -113 818 10 234 117 387 348
415 625 l7 74 271 3 271 2 39 -42 c59 -67 530 -583 612 -671 l72 -78 140 -2
c77 -1 140 -1 140 1 0 2 -102 114 -227 250 -126 135 -290 314 -367 396 l-138
151 33 6 c225 44 319 87 424 192 116 116 171 244 182 422 19 329 -174 611
-478 699 -110 31 -244 36 -1112 36 l-868 0 3 -97z m1937 -140 c124 -51 216
-143 262 -261 31 -80 38 -235 14 -332 -29 -119 -109 -221 -213 -271 -102 -50
-122 -52 -569 -56 l-423 -5 0 474 c0 261 2 477 4 479 2 2 199 2 438 -1 419 -5
435 -6 487 -27z"/>
</g>
</svg>
